<svg width="30" height="31" viewBox="0 0 30 31" fill="none" xmlns="http://www.w3.org/2000/svg">
<path d="M29.4509 17.0679L22.8076 23.7111C22.4415 24.0773 21.9616 24.2603 21.4818 24.2603C21.0019 24.2603 20.5221 24.0773 20.1559 23.7111C19.4237 22.9789 19.4237 21.7917 20.1559 21.0595L23.5983 17.6171H1.875C0.839473 17.6171 0 16.7776 0 15.7421C0 14.7066 0.839473 13.8671 1.875 13.8671H23.5983L20.1559 10.4247C19.4237 9.69248 19.4237 8.50531 20.1559 7.77306C20.8882 7.04082 22.0753 7.04082 22.8076 7.77306L29.4509 14.4163C30.183 15.1485 30.183 16.3357 29.4509 17.0679Z" fill="white"/>
</svg>
