<svg width="347" height="99" viewBox="0 0 347 99" fill="none" xmlns="http://www.w3.org/2000/svg">
<path d="M18.6762 34.0752H36.4629H54.2495L63.1428 18.832H45.3562H27.5696H9.77919L0.885864 34.0752L9.77919 49.3221L18.6762 34.0752Z" fill="#FAFAFA"/>
<path d="M58.6162 41.6987L49.7229 56.9419H31.9363L23.095 72.0968L23.0392 72.1888L18.6502 79.7165L9.75317 64.4733L14.1459 56.9419L14.2017 56.8499L23.0392 41.6987H58.6162Z" fill="#44A647"/>
<path d="M106.654 52.7126H90.9537L88.7034 68.3791H79.3712L84.7793 30.1699H113.088L111.995 38.132H93.0254L91.9951 45.5162H107.695L106.654 52.7126Z" fill="#FAFAFA"/>
<path d="M126.471 68.3791H117.142L122.547 30.1699H131.875L126.471 68.3791Z" fill="#FAFAFA"/>
<path d="M172.671 68.3791H165.462L150.086 46.0904L146.932 68.3791H137.682L143.071 30.1699H150.279L165.723 52.0758L168.81 30.1699H178.075L172.671 68.3791Z" fill="#FAFAFA"/>
<path d="M183.867 68.3791L189.271 30.1699H198.603L194.356 60.417H211.599L210.442 68.3791H183.867Z" fill="#FAFAFA"/>
<path d="M246.663 52.65H230.966L229.873 60.417H248.597L247.44 68.3791H219.384L224.788 30.1699H252.845L251.751 38.132H233.027L231.997 45.4536H247.697L246.663 52.65Z" fill="#FAFAFA"/>
<path d="M259.856 30.1699H290.925L289.764 38.132H278.903L274.593 68.3791H265.26L269.571 38.132H258.699L259.856 30.1699Z" fill="#FAFAFA"/>
<path d="M321.425 52.65H305.732L304.639 60.417H323.363L322.206 68.3791H294.153L299.558 30.1699H327.61L326.517 38.132H307.793L306.762 45.4536H322.462L321.425 52.65Z" fill="#FAFAFA"/>
</svg>
