<svg width="107" height="107" viewBox="0 0 107 107" fill="none" xmlns="http://www.w3.org/2000/svg">
<g clip-path="url(#clip0_479_3884)">
<path d="M40.6296 35.8034C40.6503 34.284 42.2909 33.3419 43.6136 34.0896L74.6615 51.6411C76.0106 52.4038 76.0172 54.3447 74.6733 55.1165L43.1382 73.2272C41.7943 73.999 40.1212 73.0151 40.1424 71.4655L40.6296 35.8034Z" fill="#45CD47"/>
<path d="M76.5594 47.9506L60.9351 38.8993L45.4184 29.9557C43.9099 29.0936 42.1858 28.8781 40.6773 29.3091C39.1687 29.7402 37.7679 30.7099 36.9059 32.2185C36.5826 32.6495 36.4748 33.1883 36.2593 33.7271C36.1516 34.0503 36.1516 34.4813 36.0438 34.9124C36.0438 35.0201 36.0438 35.2356 36.0438 35.3434V53.6616V71.9798C36.0438 73.7039 36.7981 75.3202 37.8756 76.3978C39.0609 77.5831 40.5695 78.2296 42.2936 78.2296C43.2634 78.2296 45.3107 77.3675 45.8495 77.0443L61.1506 68.2084H61.2583L61.3661 68.1007L77.206 58.9416C78.7145 58.0795 79.6843 56.6787 80.1153 55.0624C80.2231 54.7391 80.2231 54.3081 80.2231 53.8771C80.2231 50.3212 76.5594 47.9506 76.5594 47.9506ZM74.4044 54.3081L58.78 63.3595C58.6722 63.3595 58.5645 63.4672 58.5645 63.4672L43.2634 72.3031C43.1556 72.4108 42.6168 72.6264 42.4013 72.6264C42.1858 72.6264 41.9703 72.5186 41.7548 72.4108C41.647 72.3031 41.5393 71.9798 41.5393 71.7643V53.5539V35.3434V35.2356C41.5393 35.1279 41.5393 35.1279 41.5393 35.0201C41.5393 35.0201 41.5393 34.9124 41.647 34.9124C41.647 34.9124 41.7548 34.8046 41.7548 34.6969C41.8626 34.5891 42.0781 34.4813 42.1858 34.3736C42.4013 34.3736 42.6168 34.3736 42.7246 34.3736C42.8323 34.4813 42.9401 34.4813 43.0479 34.5891L58.349 43.4249C58.4567 43.5327 58.5645 43.5327 58.5645 43.5327H58.6722L74.2966 52.5841C74.5121 52.6918 74.9431 53.0151 74.9431 53.3383C74.9431 53.7694 74.6199 54.2004 74.4044 54.3081Z" fill="#45CD47"/>
<path d="M91.3218 15.7321C80.9774 5.27996 67.2926 0 53.6078 0C39.923 0 26.2382 5.17221 15.786 15.6244C5.33385 26.1843 0.053894 39.8691 0.053894 53.5539C0.053894 67.2387 5.2261 80.9235 15.6783 91.3756C26.1304 101.828 39.8152 107 53.5 107C67.1848 107 80.8696 101.828 91.3218 91.3756C101.774 80.9235 106.946 67.2387 106.946 53.5539C106.946 39.8691 101.774 26.1843 91.3218 15.7321ZM87.5504 87.4965C78.1757 96.8711 65.8918 101.612 53.6078 101.612C41.3238 101.612 29.0398 96.8711 19.6652 87.4965C10.1828 78.1218 5.54936 65.8379 5.54936 53.5539C5.54936 41.2699 10.2906 28.9859 19.6652 19.6113C29.0398 10.2367 41.3238 5.49547 53.6078 5.49547C65.8918 5.49547 78.1757 10.2367 87.5504 19.6113C96.925 28.9859 101.666 41.2699 101.666 53.5539C101.666 65.8379 97.0327 78.1218 87.5504 87.4965Z" fill="#45CD47"/>
</g>
<defs>
<clipPath id="clip0_479_3884">
<rect width="107" height="107" fill="white"/>
</clipPath>
</defs>
</svg>
