<svg xmlns="http://www.w3.org/2000/svg" width="25.75" height="21.702" viewBox="0 0 25.75 21.702">
    <g id="prefix__Group_6605" data-name="Group 6605" transform="translate(-1010 -783)">
        <g id="prefix__Group_6599" data-name="Group 6599" transform="translate(-1265.31 -304.989)">
            <path id="prefix__Path_3969" d="M2294.7 1097.131l4-2.308a1.6 1.6 0 1 0-1.6-2.771l-4 2.307-9.907-4.616-.694 2.042 6.415 4.989-7.383 4.263-2.167-1.636-2.1 1.213 3.554 2.682.546 4.419 2.1-1.212-.332-2.692 7.383-4.263.234 1.691 3.782-2.181z" data-name="Path 3969" style="fill:none"/>
            <path id="prefix__Path_3970" d="M2300.734 1091.995a3.185 3.185 0 0 0-4.433-1.317l-3.282 1.9-9.619-4.478a1.128 1.128 0 0 0-1.544.659l-.964 2.828a1.128 1.128 0 0 0 .375 1.255l4.813 3.742-4.432 2.559-2.167-1.635-3.607 2.082a1.129 1.129 0 0 0-.115 1.879l3.568 2.691.547 4.436a1.128 1.128 0 0 0 1.684.839l3.6-2.081-.333-2.694 4.433-2.559 1.484-.857-.234-1.691-7.383 4.263.332 2.692-2.1 1.212-.546-4.419-3.554-2.682 2.1-1.213 2.167 1.636 7.383-4.263-6.415-4.989.694-2.042 9.907 4.616 4-2.307a1.6 1.6 0 1 1 1.6 2.771l-4 2.308-.169 1.927 1.676-.967 3.126-1.8a3.307 3.307 0 0 0 1.408-4.301z" data-name="Path 3970"/>
            <path id="prefix__Path_3971" d="M2293.74 1108.016l-2.115-.418-.879-6.359-1.484.857.946 6.838 3.721.735a1.129 1.129 0 0 0 1.343-1.008l.932-10.57-1.676.967z" data-name="Path 3971" style="fill:#36e2a3"/>
        </g>
    </g>
</svg>
