<svg width="103" height="199" viewBox="0 0 103 199" fill="none" xmlns="http://www.w3.org/2000/svg">
<g filter="url(#filter0_d_335_5062)">
<path d="M49.507 40.3151C48.8447 40.0093 48.1272 39.8353 47.3956 39.8031C46.664 39.771 45.9326 39.8812 45.2432 40.1276C44.5537 40.374 43.9197 40.7517 43.3775 41.2391C42.8352 41.7265 42.3952 42.3141 42.0827 42.9683L41.6417 43.891C41.5267 44.1316 41.2377 44.2349 40.994 44.1224L40.0597 43.6913C38.722 43.074 37.1884 43.0067 35.7961 43.5043C34.4037 44.0019 33.2668 45.0235 32.6354 46.3445C32.004 47.6654 31.9299 49.1775 32.4293 50.548C32.9287 51.9185 33.9607 53.0353 35.2983 53.6526L46.3198 58.7387C46.5635 58.8511 46.8525 58.7479 46.9675 58.5072L52.1699 47.6232C52.4827 46.9692 52.6619 46.2613 52.6974 45.54C52.7328 44.8187 52.6238 44.0981 52.3765 43.4195C52.1292 42.7408 51.7485 42.1173 51.2562 41.5847C50.7638 41.052 50.1694 40.6206 49.507 40.3151Z" fill="url(#paint0_radial_335_5062)"/>
<path d="M72.3343 36.1561C72.0321 35.5008 71.6014 34.9116 71.0668 34.4223C70.5322 33.933 69.9042 33.553 69.2187 33.3041C68.5331 33.0553 67.8035 32.9424 67.0714 32.9719C66.3393 33.0015 65.6191 33.1728 64.952 33.4763L64.011 33.9041C63.7655 34.0156 63.4781 33.9113 63.3669 33.6703L62.9404 32.746C62.3298 31.4228 61.209 30.3972 59.8246 29.8946C58.4402 29.392 56.9055 29.4538 55.5582 30.0662C54.2108 30.6787 53.1613 31.7917 52.6403 33.1604C52.1194 34.5291 52.1697 36.0413 52.7803 37.3645L57.8112 48.2669C57.9225 48.508 58.2098 48.6123 58.4553 48.5007L69.5565 43.4544C70.2237 43.1513 70.8249 42.722 71.3256 42.1911C71.8263 41.6603 72.2168 41.0382 72.4748 40.3604C72.7328 39.6827 72.8531 38.9625 72.829 38.2411C72.8049 37.5197 72.6368 36.8112 72.3343 36.1561Z" fill="url(#paint1_radial_335_5062)"/>
<path d="M63.8485 62.3623C63.6747 61.9478 63.4194 61.5718 63.0972 61.2558C62.7751 60.9397 62.3924 60.6898 61.971 60.5204C61.5496 60.3509 61.0978 60.2652 60.6414 60.2682C60.1849 60.2712 59.7328 60.3627 59.3109 60.5377L58.8856 60.7139C58.6363 60.8172 58.3525 60.703 58.2498 60.4582L58.0744 60.0404C57.7231 59.2035 57.0477 58.541 56.1967 58.1988C55.3458 57.8566 54.389 57.8627 53.5368 58.2158C52.6846 58.5688 52.0069 59.2399 51.6528 60.0814C51.2986 60.9229 51.297 61.8659 51.6483 62.7029L54.4727 69.4324C54.5755 69.6772 54.8593 69.7913 55.1086 69.688L61.96 66.8494C62.382 66.6747 62.7657 66.42 63.089 66.0999C63.4123 65.7798 63.669 65.4006 63.8444 64.9839C64.0198 64.5672 64.1104 64.1212 64.1111 63.6714C64.1118 63.2216 64.0226 62.7767 63.8485 62.3623Z" fill="url(#paint2_radial_335_5062)"/>
<path d="M68.0257 77.2692C67.8641 76.8499 67.6199 76.4667 67.3072 76.1417C66.9945 75.8166 66.6193 75.5559 66.2031 75.3746C65.7869 75.1933 65.3379 75.0948 64.8816 75.0849C64.4254 75.075 63.9709 75.1537 63.5441 75.3167L63.1142 75.4807C62.8619 75.5769 62.5814 75.4547 62.4858 75.2069L62.3229 74.7846C61.9963 73.9379 61.3406 73.2565 60.5001 72.8903C59.6597 72.5241 58.7032 72.5032 57.8413 72.8321C56.9793 73.1609 56.2823 73.8127 55.9038 74.644C55.5252 75.4753 55.496 76.4179 55.8226 77.2647L58.4485 84.0721C58.5441 84.3199 58.8246 84.4421 59.0769 84.3459L66.0071 81.7018C66.4339 81.539 66.8248 81.2953 67.1573 80.9844C67.4898 80.6735 67.7574 80.3016 67.9449 79.89C68.1323 79.4784 68.236 79.0351 68.2498 78.5854C68.2637 78.1357 68.1875 77.6884 68.0257 77.2692Z" fill="url(#paint3_radial_335_5062)"/>
<path d="M47.3468 69.4706C46.6986 69.2606 46.0143 69.1786 45.3331 69.2293C44.6518 69.28 43.9869 69.4625 43.3764 69.7661C42.7659 70.0698 42.2216 70.4889 41.7748 70.9993C41.328 71.5097 40.9874 72.1015 40.7723 72.7409L40.4796 73.6106C40.3946 73.8635 40.119 74.0005 39.8626 73.9176L38.9808 73.6321C37.6717 73.2083 36.2436 73.3148 35.0107 73.9281C33.7777 74.5414 32.8409 75.6113 32.4064 76.9024C31.9718 78.1936 32.0751 79.6002 32.6935 80.8128C33.3119 82.0255 34.3948 82.9448 35.7039 83.3686L46.4578 86.8499C46.7141 86.9329 46.9897 86.7958 47.0748 86.543L50.6444 75.9368C50.8597 75.2975 50.9452 74.6231 50.896 73.9521C50.8468 73.2811 50.6639 72.6267 50.3577 72.0262C50.0514 71.4257 49.6279 70.8909 49.1113 70.4524C48.5947 70.014 47.9951 69.6803 47.3468 69.4706Z" fill="url(#paint4_radial_335_5062)"/>
<path d="M68.5314 96.2327C68.4554 95.7901 68.2913 95.3674 68.0487 94.9887C67.8061 94.61 67.4896 94.2827 67.1173 94.0256C66.745 93.7684 66.3243 93.5865 65.8791 93.4901C65.4339 93.3937 64.973 93.3847 64.5227 93.4638L64.0719 93.5428C63.8047 93.5896 63.5518 93.415 63.5066 93.1523L63.4304 92.7092C63.2766 91.8154 62.7678 91.0216 62.016 90.5023C61.2643 89.983 60.331 89.7808 59.4217 89.9402C58.5123 90.0996 57.7013 90.6075 57.167 91.3522C56.6328 92.0969 56.419 93.0174 56.5728 93.9111L57.809 101.094C57.8542 101.357 58.107 101.531 58.3742 101.485L65.6826 100.204C66.1329 100.125 66.5639 99.9596 66.9508 99.7174C67.3377 99.4751 67.673 99.1606 67.9375 98.7919C68.2021 98.4231 68.3907 98.0073 68.4926 97.5682C68.5945 97.1291 68.6077 96.6753 68.5314 96.2327Z" fill="url(#paint5_radial_335_5062)"/>
<path d="M42.4196 122.331C41.9929 122.173 41.5384 122.099 41.0822 122.114C40.6259 122.129 40.1768 122.233 39.7605 122.419C39.3442 122.605 38.9689 122.869 38.656 123.198C38.3431 123.527 38.0987 123.912 37.9368 124.334L37.7738 124.757C37.678 125.006 37.3973 125.132 37.145 125.038L36.7153 124.879C35.8535 124.56 34.8971 124.591 34.0564 124.967C33.2157 125.342 32.5597 126.031 32.2326 126.881C31.9055 127.732 31.9341 128.674 32.3122 129.501C32.6903 130.328 33.3869 130.972 34.2487 131.292L41.1772 133.859C41.4295 133.952 41.7103 133.827 41.806 133.578L44.4357 126.742C44.5978 126.321 44.6742 125.873 44.6606 125.423C44.647 124.973 44.5436 124.531 44.3564 124.122C44.1691 123.712 43.9017 123.343 43.5694 123.036C43.2371 122.729 42.8464 122.489 42.4196 122.331Z" fill="url(#paint6_radial_335_5062)"/>
<path d="M50.4322 95.3866C49.7531 94.9657 48.9959 94.6812 48.204 94.5495C47.412 94.4177 46.6008 94.4412 45.8167 94.6187C45.0325 94.7962 44.2908 95.1241 43.6339 95.5838C42.977 96.0434 42.4178 96.6258 41.9883 97.2976L41.3561 98.2857C41.2123 98.5105 40.9138 98.5781 40.6865 98.4373L39.6874 97.8184C38.3157 96.9687 36.6555 96.6927 35.072 97.0511C33.4884 97.4095 32.1113 98.3729 31.2434 99.7294C30.3756 101.086 30.0882 102.724 30.4445 104.284C30.8007 105.844 31.7715 107.198 33.1431 108.048L44.4859 115.074C44.7132 115.215 45.0117 115.147 45.1555 114.923L52.3319 103.705C52.7618 103.033 53.0536 102.285 53.1908 101.504C53.328 100.722 53.3078 99.9223 53.1314 99.1498C52.955 98.3774 52.6258 97.6474 52.1627 97.0017C51.6995 96.356 51.1115 95.8071 50.4322 95.3866Z" fill="url(#paint7_radial_335_5062)"/>
<path d="M71.5087 115.013C71.1478 114.365 70.6605 113.795 70.0746 113.335C69.4887 112.875 68.8157 112.534 68.094 112.331C67.3724 112.128 66.6163 112.068 65.8689 112.154C65.1215 112.24 64.3974 112.47 63.738 112.831L62.7959 113.347C62.5598 113.476 62.2658 113.393 62.1365 113.162L61.6206 112.237C60.8914 110.929 59.663 109.965 58.2057 109.556C56.7484 109.146 55.1816 109.326 53.8499 110.055C52.5182 110.784 51.5307 112.003 51.1046 113.443C50.6786 114.883 50.8489 116.426 51.5781 117.734L57.593 128.519C57.7222 128.751 58.0163 128.833 58.2524 128.704L69.237 122.691C69.8965 122.33 70.4784 121.845 70.9496 121.264C71.4207 120.683 71.7718 120.017 71.9828 119.304C72.1937 118.591 72.2604 117.845 72.1791 117.108C72.0978 116.372 71.87 115.66 71.5087 115.013Z" fill="url(#paint8_radial_335_5062)"/>
<path d="M66.6624 141.679C66.4812 141.265 66.2188 140.892 65.8902 140.579C65.5616 140.267 65.1732 140.021 64.7472 139.858C64.3212 139.694 63.866 139.615 63.4076 139.625C62.9491 139.635 62.4964 139.734 62.0753 139.916L61.6486 140.1C61.401 140.207 61.1156 140.097 61.009 139.854L60.8253 139.435C60.4592 138.6 59.7702 137.945 58.91 137.614C58.0497 137.283 57.0887 137.304 56.2382 137.672C55.3877 138.039 54.7175 138.724 54.375 139.574C54.0326 140.425 54.0458 141.372 54.412 142.207L57.3566 148.925C57.4632 149.169 57.7486 149.278 57.9962 149.171L64.8362 146.215C65.2574 146.033 65.6388 145.771 65.9585 145.445C66.2782 145.118 66.5301 144.733 66.6997 144.312C66.8693 143.891 66.9533 143.442 66.9469 142.99C66.9405 142.538 66.8438 142.093 66.6624 141.679Z" fill="url(#paint9_radial_335_5062)"/>
<path d="M47.9304 138.544C47.2471 138.225 46.5062 138.043 45.7501 138.006C44.994 137.97 44.2374 138.081 43.5237 138.333C42.8099 138.585 42.1529 138.972 41.5903 139.474C41.0276 139.976 40.5703 140.581 40.2445 141.256L39.7775 142.223C39.6615 142.463 39.3722 142.565 39.129 142.452L38.1501 141.995C36.77 141.352 35.1849 141.276 33.7436 141.784C32.3022 142.293 31.1225 143.344 30.4642 144.707C29.8058 146.07 29.7227 147.633 30.233 149.052C30.7434 150.471 31.8054 151.629 33.1855 152.273L44.5716 157.584C44.8148 157.697 45.1041 157.595 45.2201 157.355L50.6517 146.11C50.9779 145.435 51.1662 144.704 51.206 143.959C51.2457 143.213 51.1361 142.468 50.8834 141.765C50.6307 141.063 50.2398 140.417 49.7331 139.864C49.2265 139.311 48.6139 138.863 47.9304 138.544Z" fill="url(#paint10_radial_335_5062)"/>
<path d="M56.6801 147.194C56.2682 147.002 55.8217 146.892 55.366 146.87C54.9102 146.848 54.4542 146.915 54.024 147.066C53.5938 147.218 53.1978 147.452 52.8586 147.754C52.5195 148.056 52.2438 148.421 52.0473 148.828L51.8491 149.239C51.733 149.479 51.4437 149.581 51.2005 149.467L50.7849 149.273C49.9532 148.885 48.9978 148.84 48.129 149.146C47.2602 149.452 46.5491 150.086 46.1522 150.908C45.7553 151.729 45.7051 152.671 46.0126 153.526C46.3201 154.381 46.9602 155.08 47.792 155.468L54.48 158.588C54.7232 158.702 55.0125 158.6 55.1285 158.359L58.3198 151.754C58.5165 151.348 58.63 150.907 58.654 150.458C58.678 150.008 58.612 149.559 58.4597 149.136C58.3075 148.712 58.0719 148.323 57.7666 147.99C57.4612 147.656 57.092 147.386 56.6801 147.194Z" fill="url(#paint11_radial_335_5062)"/>
<path d="M66.6616 161.346C66.4704 160.939 66.1994 160.574 65.8641 160.272C65.5289 159.969 65.1359 159.735 64.7076 159.583C64.2794 159.431 63.8242 159.364 63.3682 159.385C62.9122 159.407 62.4642 159.517 62.0499 159.708L61.6319 159.902C61.3872 160.015 61.0992 159.913 60.9863 159.673L60.7933 159.262C60.4069 158.44 59.704 157.806 58.8392 157.499C57.9743 157.192 57.0184 157.237 56.1816 157.624C55.3448 158.012 54.6958 158.709 54.3772 159.564C54.0587 160.419 54.0968 161.361 54.4831 162.183L57.5893 168.791C57.7022 169.031 57.9903 169.133 58.2349 169.02L64.9631 165.905C65.3775 165.714 65.7502 165.444 66.0598 165.111C66.3695 164.778 66.61 164.389 66.7678 163.965C66.9255 163.542 66.9973 163.093 66.9791 162.643C66.9609 162.194 66.853 161.753 66.6616 161.346Z" fill="url(#paint12_radial_335_5062)"/>
</g>
<defs>
<filter id="filter0_d_335_5062" x="0.714611" y="0.369961" width="101.305" height="197.884" filterUnits="userSpaceOnUse" color-interpolation-filters="sRGB">
<feFlood flood-opacity="0" result="BackgroundImageFix"/>
<feColorMatrix in="SourceAlpha" type="matrix" values="0 0 0 0 0 0 0 0 0 0 0 0 0 0 0 0 0 0 127 0" result="hardAlpha"/>
<feOffset/>
<feGaussianBlur stdDeviation="14.5939"/>
<feComposite in2="hardAlpha" operator="out"/>
<feColorMatrix type="matrix" values="0 0 0 0 1 0 0 0 0 1 0 0 0 0 1 0 0 0 0.24 0"/>
<feBlend mode="normal" in2="BackgroundImageFix" result="effect1_dropShadow_335_5062"/>
<feBlend mode="normal" in="SourceGraphic" in2="effect1_dropShadow_335_5062" result="shape"/>
</filter>
<radialGradient id="paint0_radial_335_5062" cx="0" cy="0" r="1" gradientUnits="userSpaceOnUse" gradientTransform="translate(43.6399 50.3786) rotate(69.9795) scale(9.11374 10.5912)">
<stop stop-color="#FF0000"/>
<stop offset="1" stop-color="#FF7979"/>
</radialGradient>
<radialGradient id="paint1_radial_335_5062" cx="0" cy="0" r="1" gradientUnits="userSpaceOnUse" gradientTransform="translate(61.2672 40.1507) rotate(110.838) scale(9.15 10.5492)">
<stop stop-color="#FF0000"/>
<stop offset="1" stop-color="#FF7979"/>
</radialGradient>
<radialGradient id="paint2_radial_335_5062" cx="0" cy="0" r="1" gradientUnits="userSpaceOnUse" gradientTransform="translate(56.8713 64.6171) rotate(112.825) scale(5.70426 6.56934)">
<stop stop-color="#FF0000"/>
<stop offset="1" stop-color="#FF7979"/>
</radialGradient>
<radialGradient id="paint3_radial_335_5062" cx="0" cy="0" r="1" gradientUnits="userSpaceOnUse" gradientTransform="translate(60.9866 79.3261) rotate(114.485) scale(5.70694 6.56625)">
<stop stop-color="#FF0000"/>
<stop offset="1" stop-color="#FF7979"/>
</radialGradient>
<radialGradient id="paint4_radial_335_5062" cx="0" cy="0" r="1" gradientUnits="userSpaceOnUse" gradientTransform="translate(43.0574 79.4233) rotate(62.9797) scale(8.50484 9.86392)">
<stop stop-color="#FF0000"/>
<stop offset="1" stop-color="#FF7979"/>
</radialGradient>
<radialGradient id="paint5_radial_335_5062" cx="0" cy="0" r="1" gradientUnits="userSpaceOnUse" gradientTransform="translate(61.2289 96.9167) rotate(125.657) scale(5.72631 6.54405)">
<stop stop-color="#FF0000"/>
<stop offset="1" stop-color="#FF7979"/>
</radialGradient>
<radialGradient id="paint6_radial_335_5062" cx="0" cy="0" r="1" gradientUnits="userSpaceOnUse" gradientTransform="translate(39.2709 128.86) rotate(65.4327) scale(5.68191 6.59518)">
<stop stop-color="#FF0000"/>
<stop offset="1" stop-color="#FF7979"/>
</radialGradient>
<radialGradient id="paint7_radial_335_5062" cx="0" cy="0" r="1" gradientUnits="userSpaceOnUse" gradientTransform="translate(42.6704 105.581) rotate(77.1359) scale(9.99771 11.6303)">
<stop stop-color="#FF0000"/>
<stop offset="1" stop-color="#FF7979"/>
</radialGradient>
<radialGradient id="paint8_radial_335_5062" cx="0" cy="0" r="1" gradientUnits="userSpaceOnUse" gradientTransform="translate(60.4884 119.94) rotate(106.481) scale(9.38254 10.8416)">
<stop stop-color="#FF0000"/>
<stop offset="1" stop-color="#FF7979"/>
</radialGradient>
<radialGradient id="paint9_radial_335_5062" cx="0" cy="0" r="1" gradientUnits="userSpaceOnUse" gradientTransform="translate(59.689 144.05) rotate(111.932) scale(5.729 6.60111)">
<stop stop-color="#FF0000"/>
<stop offset="1" stop-color="#FF7979"/>
</radialGradient>
<radialGradient id="paint10_radial_335_5062" cx="0" cy="0" r="1" gradientUnits="userSpaceOnUse" gradientTransform="translate(41.8224 148.923) rotate(70.2174) scale(9.42107 10.9489)">
<stop stop-color="#FF0000"/>
<stop offset="1" stop-color="#FF7979"/>
</radialGradient>
<radialGradient id="paint11_radial_335_5062" cx="0" cy="0" r="1" gradientUnits="userSpaceOnUse" gradientTransform="translate(52.9979 153.449) rotate(70.2234) scale(5.67839 6.59926)">
<stop stop-color="#FF0000"/>
<stop offset="1" stop-color="#FF7979"/>
</radialGradient>
<radialGradient id="paint12_radial_335_5062" cx="0" cy="0" r="1" gradientUnits="userSpaceOnUse" gradientTransform="translate(59.7835 163.883) rotate(110.433) scale(5.70052 6.57365)">
<stop stop-color="#FF0000"/>
<stop offset="1" stop-color="#FF7979"/>
</radialGradient>
</defs>
</svg>
