<svg width="35" height="34" viewBox="0 0 35 34" fill="none" xmlns="http://www.w3.org/2000/svg">
<path d="M35 17C35 26.3888 27.165 34 17.5 34C7.83502 34 0 26.3888 0 17C0 7.61116 7.83502 0 17.5 0C27.165 0 35 7.61116 35 17Z" fill="#45CD47"/>
<path d="M24.6959 16.7579L19.2686 11.3053C18.8621 10.8969 18.2046 10.8984 17.7999 11.3089C17.3953 11.7192 17.3969 12.383 17.8034 12.7915L21.4466 16.4516H11.0385C10.4649 16.4516 10 16.921 10 17.5C10 18.079 10.4649 18.5484 11.0385 18.5484H21.4466L17.8035 22.2085C17.397 22.617 17.3954 23.2808 17.8 23.6911C18.2046 24.1016 18.8622 24.1031 19.2687 23.6947L24.695 18.2431C25.1017 17.8333 25.1013 17.1664 24.6959 16.7579Z" fill="black"/>
</svg>
