<svg width="19" height="18" viewBox="0 0 19 18" fill="none" xmlns="http://www.w3.org/2000/svg">
<g clip-path="url(#clip0_335_5010)">
<path d="M9.84985 17.7803C4.94763 17.7803 0.959717 13.7924 0.959717 8.89013C0.959717 3.98792 4.94763 0 9.84985 0C14.7521 0 18.74 3.98792 18.74 8.89013C18.74 13.7924 14.7521 17.7803 9.84985 17.7803ZM9.84985 1.11127C5.56038 1.11127 2.07098 4.60066 2.07098 8.89013C2.07098 13.1796 5.56038 16.669 9.84985 16.669C14.1393 16.669 17.6287 13.1796 17.6287 8.89013C17.6287 4.60066 14.1393 1.11127 9.84985 1.11127Z" fill="white"/>
<path d="M13.7393 9.44576H5.96042C5.65371 9.44576 5.40479 9.19684 5.40479 8.89013C5.40479 8.58342 5.65371 8.3345 5.96042 8.3345H13.7393C14.046 8.3345 14.2949 8.58342 14.2949 8.89013C14.2949 9.19684 14.046 9.44576 13.7393 9.44576Z" fill="white"/>
<path d="M9.84982 13.3352C9.54311 13.3352 9.29419 13.0863 9.29419 12.7796V5.0007C9.29419 4.69399 9.54311 4.44507 9.84982 4.44507C10.1565 4.44507 10.4055 4.69399 10.4055 5.0007V12.7796C10.4055 13.0863 10.1565 13.3352 9.84982 13.3352Z" fill="white"/>
</g>
<defs>
<clipPath id="clip0_335_5010">
<rect width="17.7803" height="17.7803" fill="white" transform="translate(0.959717)"/>
</clipPath>
</defs>
</svg>
