<svg width="101" height="24" viewBox="0 0 101 24" fill="none" xmlns="http://www.w3.org/2000/svg">
<rect x="0.349854" y="0.721985" width="30.9693" height="22.0359" rx="3.14798" fill="url(#paint0_linear_335_5051)"/>
<path d="M7.13145 14.6776V8.45745H8.25825V13.733H10.9978V14.6776H7.13145ZM13.1026 8.45745V14.6776H11.9758V8.45745H13.1026ZM15.1549 8.45745L16.7738 13.3534H16.8375L18.4533 8.45745H19.6925L17.4997 14.6776H16.1086L13.9188 8.45745H15.1549ZM20.5118 14.6776V8.45745H24.5573V9.40201H21.6386V11.0907H24.3478V12.0353H21.6386V13.733H24.5816V14.6776H20.5118Z" fill="white"/>
<rect x="39.1892" y="0.176178" width="39.0991" height="23.1275" rx="2.42549" fill="#676362"/>
<path fill-rule="evenodd" clip-rule="evenodd" d="M45.2529 11.7399C45.2529 11.7399 47.4375 14.4978 50.1324 14.4978C52.8272 14.4978 55.0118 11.7399 55.0118 11.7399C55.0118 11.7399 52.8272 8.98196 50.1324 8.98196C47.4375 8.98196 45.2529 11.7399 45.2529 11.7399ZM46.402 11.7399C46.6135 11.529 46.8853 11.2789 47.2043 11.0298C48.0287 10.3861 49.0637 9.83056 50.1324 9.83056C51.2011 9.83056 52.236 10.3861 53.0604 11.0298C53.3794 11.2789 53.6513 11.529 53.8628 11.7399C53.6513 11.9508 53.3794 12.2009 53.0604 12.45C52.236 13.0937 51.2011 13.6493 50.1324 13.6493C49.0637 13.6493 48.0287 13.0937 47.2043 12.45C46.8853 12.2009 46.6135 11.9508 46.402 11.7399Z" fill="white"/>
<path d="M48.6473 11.7399C48.6473 12.5601 49.3122 13.2249 50.1324 13.2249C50.9526 13.2249 51.6174 12.5601 51.6174 11.7399C51.6174 10.9197 50.9526 10.2549 50.1324 10.2549C49.3122 10.2549 48.6473 10.9197 48.6473 11.7399Z" fill="white"/>
<path d="M59.4209 8.90687V15.2399H58.2737V10.0232H58.2366L56.7554 10.9694V9.91806L58.3294 8.90687H59.4209ZM63.3698 15.3605C62.8606 15.3605 62.4236 15.2317 62.0587 14.974C61.6959 14.7142 61.4165 14.3401 61.2207 13.8515C61.0269 13.3608 60.93 12.7702 60.93 12.0796C60.9321 11.389 61.03 10.8014 61.2238 10.317C61.4196 9.83044 61.6989 9.45936 62.0618 9.20373C62.4267 8.9481 62.8627 8.82028 63.3698 8.82028C63.877 8.82028 64.313 8.9481 64.6779 9.20373C65.0428 9.45936 65.3221 9.83044 65.5159 10.317C65.7117 10.8035 65.8097 11.391 65.8097 12.0796C65.8097 12.7723 65.7117 13.3639 65.5159 13.8546C65.3221 14.3432 65.0428 14.7163 64.6779 14.974C64.315 15.2317 63.879 15.3605 63.3698 15.3605ZM63.3698 14.3926C63.7656 14.3926 64.078 14.1978 64.3068 13.8082C64.5377 13.4165 64.6531 12.8403 64.6531 12.0796C64.6531 11.5766 64.6006 11.154 64.4954 10.8117C64.3903 10.4695 64.2419 10.2118 64.0501 10.0387C63.8584 9.86342 63.6316 9.77581 63.3698 9.77581C62.9761 9.77581 62.6648 9.97166 62.4359 10.3633C62.2071 10.753 62.0917 11.3251 62.0896 12.0796C62.0875 12.5847 62.1381 13.0093 62.2411 13.3536C62.3463 13.6979 62.4947 13.9576 62.6864 14.1329C62.8782 14.3061 63.106 14.3926 63.3698 14.3926ZM66.8989 15.2399V8.90687H68.0462V11.8167H68.1235L70.5942 8.90687H71.9951L69.546 11.7487L72.0167 15.2399H70.6375L68.7481 12.5249L68.0462 13.3536V15.2399H66.8989Z" fill="white"/>
<path fill-rule="evenodd" clip-rule="evenodd" d="M86.715 5.05042C87.0223 4.74308 87.5206 4.74308 87.828 5.05042L99.7064 16.9288C100.014 17.2362 100.014 17.7345 99.7064 18.0418C99.399 18.3491 98.9007 18.3491 98.5934 18.0418L86.715 6.1634C86.4077 5.85606 86.4077 5.35776 86.715 5.05042Z" fill="white"/>
<path fill-rule="evenodd" clip-rule="evenodd" d="M86.7147 18.4293C86.4074 18.122 86.4074 17.6237 86.7147 17.3163L98.5931 5.4379C98.9004 5.13056 99.3987 5.13056 99.7061 5.4379C100.013 5.74524 100.013 6.24354 99.7061 6.55088L87.8277 18.4293C87.5203 18.7366 87.022 18.7366 86.7147 18.4293Z" fill="white"/>
<defs>
<linearGradient id="paint0_linear_335_5051" x1="15.8345" y1="0.721985" x2="15.8345" y2="22.7579" gradientUnits="userSpaceOnUse">
<stop stop-color="#D4007A"/>
<stop offset="1" stop-color="#D2044E"/>
</linearGradient>
</defs>
</svg>
