<svg width="30" height="30" viewBox="0 0 30 30" fill="none" xmlns="http://www.w3.org/2000/svg">
<path d="M30 15C30 23.2843 23.2843 30 15 30C6.71573 30 0 23.2843 0 15C0 6.71573 6.71573 0 15 0C23.2843 0 30 6.71573 30 15Z" fill="#45CD47"/>
<path d="M12.0917 9.75018C11.9276 9.74657 11.7665 9.79414 11.6307 9.88633C11.495 9.97853 11.3913 10.1108 11.3341 10.2647C11.277 10.4185 11.2692 10.5863 11.3118 10.7448C11.3544 10.9033 11.4454 11.0445 11.572 11.1489L16.4036 15.2881L11.572 19.4258C11.4844 19.4902 11.4111 19.5719 11.3565 19.6659C11.302 19.76 11.2675 19.8643 11.2551 19.9723C11.2428 20.0803 11.2528 20.1897 11.2847 20.2936C11.3166 20.3976 11.3696 20.4938 11.4404 20.5763C11.5112 20.6588 11.5982 20.7257 11.6961 20.773C11.794 20.8203 11.9006 20.8469 12.0092 20.8511C12.1179 20.8553 12.2262 20.8371 12.3274 20.7974C12.4287 20.7578 12.5206 20.6977 12.5976 20.6209L18.1293 15.888C18.2162 15.8138 18.286 15.7218 18.3338 15.6181C18.3816 15.5144 18.4064 15.4015 18.4064 15.2873C18.4064 15.1731 18.3816 15.0603 18.3338 14.9566C18.286 14.8529 18.2162 14.7608 18.1293 14.6866L12.5976 9.94908C12.4578 9.82496 12.2786 9.75458 12.0917 9.75018Z" fill="white"/>
</svg>
