<svg width="19" height="18" viewBox="0 0 19 18" fill="none" xmlns="http://www.w3.org/2000/svg">
<g clip-path="url(#clip0_335_5014)">
<path d="M9.15039 17.7803C4.24817 17.7803 0.260254 13.7924 0.260254 8.89013C0.260254 3.98792 4.24817 0 9.15039 0C14.0526 0 18.0405 3.98792 18.0405 8.89013C18.0405 13.7924 14.0526 17.7803 9.15039 17.7803ZM9.15039 1.11127C4.86092 1.11127 1.37152 4.60066 1.37152 8.89013C1.37152 13.1796 4.86092 16.669 9.15039 16.669C13.4399 16.669 16.9293 13.1796 16.9293 8.89013C16.9293 4.60066 13.4399 1.11127 9.15039 1.11127Z" fill="white"/>
<path d="M13.0398 9.44576H5.26096C4.95424 9.44576 4.70532 9.19684 4.70532 8.89013C4.70532 8.58342 4.95424 8.3345 5.26096 8.3345H13.0398C13.3465 8.3345 13.5955 8.58342 13.5955 8.89013C13.5955 9.19684 13.3465 9.44576 13.0398 9.44576Z" fill="white"/>
</g>
<defs>
<clipPath id="clip0_335_5014">
<rect width="17.7803" height="17.7803" fill="white" transform="translate(0.260254)"/>
</clipPath>
</defs>
</svg>
