<svg width="28" height="28" viewBox="0 0 28 28" fill="none" xmlns="http://www.w3.org/2000/svg">
<g clip-path="url(#clip0_335_4816)">
<path d="M13.3174 27.6347C13.4696 27.8629 13.7257 28 14 28C14.2743 28 14.5304 27.863 14.6826 27.6347C16.6239 24.7227 19.4834 21.1264 21.4759 17.4689C23.0692 14.5444 23.8438 12.0502 23.8438 9.84375C23.8438 4.41591 19.4278 0 14 0C8.57216 0 4.15625 4.41591 4.15625 9.84375C4.15625 12.0502 4.93079 14.5444 6.52405 17.4689C8.51517 21.1236 11.3801 24.7288 13.3174 27.6347ZM14 1.64062C18.5232 1.64062 22.2031 5.32055 22.2031 9.84375C22.2031 11.769 21.494 14.0065 20.0353 16.684C18.3177 19.8367 15.8667 23.0348 14 25.7233C12.1336 23.0351 9.68242 19.8369 7.96474 16.684C6.50601 14.0065 5.79688 11.769 5.79688 9.84375C5.79688 5.32055 9.4768 1.64062 14 1.64062Z" fill="#37BA39"/>
<path d="M14 14.7656C16.7139 14.7656 18.9219 12.5577 18.9219 9.84375C18.9219 7.12983 16.7139 4.92188 14 4.92188C11.2861 4.92188 9.07812 7.12983 9.07812 9.84375C9.07812 12.5577 11.2861 14.7656 14 14.7656ZM14 6.5625C15.8093 6.5625 17.2812 8.03447 17.2812 9.84375C17.2812 11.653 15.8093 13.125 14 13.125C12.1907 13.125 10.7188 11.653 10.7188 9.84375C10.7188 8.03447 12.1907 6.5625 14 6.5625Z" fill="#37BA39"/>
</g>
<defs>
<clipPath id="clip0_335_4816">
<rect width="28" height="28" fill="white"/>
</clipPath>
</defs>
</svg>
