<svg width="213" height="40" viewBox="0 0 213 40" fill="none" xmlns="http://www.w3.org/2000/svg">
<path d="M11.549 9.90118H23.0956H34.6422L40.4155 0H28.8689H17.3223H5.7733L0 9.90118L5.7733 19.8048L11.549 9.90118Z" fill="#FAFAFA"/>
<path d="M37.4769 14.853L31.7036 24.7542H20.157L14.4175 34.598L14.3813 34.6578L11.5321 39.5474L5.75635 29.6462L8.60799 24.7542L8.6442 24.6944L14.3813 14.853H37.4769Z" fill="#44A647"/>
<path d="M68.6615 22.0071H58.4695L57.0087 32.1832H50.9504L54.4613 7.3645H72.8387L72.1289 12.5363H59.8144L59.1456 17.3326H69.3376L68.6615 22.0071Z" fill="#FAFAFA"/>
<path d="M81.5265 32.1832H75.4707L78.9791 7.3645H85.0349L81.5265 32.1832Z" fill="#FAFAFA"/>
<path d="M111.518 32.1832H106.839L96.8569 17.7056L94.8093 32.1832H88.8042L92.3029 7.3645H96.9824L107.008 21.5934L109.012 7.3645H115.027L111.518 32.1832Z" fill="#FAFAFA"/>
<path d="M118.786 32.1832L122.295 7.3645H128.353L125.595 27.0114H136.789L136.038 32.1832H118.786Z" fill="#FAFAFA"/>
<path d="M159.552 21.9664H149.362L148.652 27.0114H160.807L160.056 32.1832H141.843L145.351 7.3645H163.565L162.855 12.5363H150.7L150.031 17.292H160.223L159.552 21.9664Z" fill="#FAFAFA"/>
<path d="M168.116 7.3645H188.285L187.532 12.5363H180.481L177.683 32.1832H171.625L174.423 12.5363H167.365L168.116 7.3645Z" fill="#FAFAFA"/>
<path d="M208.085 21.9664H197.898L197.188 27.0114H209.343L208.592 32.1832H190.381L193.89 7.3645H212.1L211.391 12.5363H199.235L198.567 17.292H208.759L208.085 21.9664Z" fill="#FAFAFA"/>
</svg>
