<svg xmlns="http://www.w3.org/2000/svg" width="16.343" height="13.281" viewBox="0 0 16.343 13.281">
    <path id="prefix__Path_161" d="M519.5 212.381a9.535 9.535 0 0 0 14.67-8.467 6.822 6.822 0 0 0 1.673-1.736 6.717 6.717 0 0 1-1.926.528 3.357 3.357 0 0 0 1.474-1.855 6.728 6.728 0 0 1-2.129.814 3.355 3.355 0 0 0-5.714 3.058 9.515 9.515 0 0 1-6.91-3.5 3.357 3.357 0 0 0 1.037 4.477 3.346 3.346 0 0 1-1.519-.42 3.357 3.357 0 0 0 2.69 3.331 3.366 3.366 0 0 1-1.514.057 3.356 3.356 0 0 0 3.132 2.329 6.741 6.741 0 0 1-4.964 1.384z" data-name="Path 161" transform="translate(-519.497 -200.607)" style="fill:#051010"/>
</svg>
