<svg width="83" height="82" viewBox="0 0 83 82" fill="none" xmlns="http://www.w3.org/2000/svg">
<g clip-path="url(#clip0_383_528)">
<path d="M76.2815 21.1138C76.2389 18.8999 76.1983 16.8084 76.1983 14.7851C76.1983 13.2 74.8979 11.9149 73.293 11.9149C60.8684 11.9149 51.4087 8.38724 43.5235 0.812944C42.3955 -0.270847 40.6005 -0.270465 39.4729 0.812944C31.5885 8.38724 22.1303 11.9149 9.70646 11.9149C8.10201 11.9149 6.80125 13.2 6.80125 14.7851C6.80125 16.8088 6.76096 18.901 6.71797 21.1153C6.31976 41.718 5.77436 69.9345 40.5467 81.842C40.855 81.9477 41.1765 82.0005 41.498 82.0005C41.8195 82.0005 42.1414 81.9477 42.4494 81.842C77.2244 69.9341 76.6797 41.7169 76.2815 21.1138ZM41.4984 76.0844C11.6766 65.3816 12.1275 41.9358 12.5276 21.2247C12.5516 19.9817 12.5749 18.777 12.5911 17.596C24.2275 17.1108 33.5327 13.6271 41.4984 6.7715C49.4649 13.6271 58.7716 17.1111 70.4087 17.596C70.425 18.7766 70.4483 19.9806 70.4723 21.2228C70.872 41.9346 71.3225 65.3812 41.4984 76.0844Z" fill="#45CD47"/>
<path d="M51.5028 31.0297L37.4807 44.8821L31.4971 38.9706C30.3626 37.8501 28.523 37.8501 27.3888 38.9706C26.2542 40.0919 26.2542 41.9089 27.3888 43.0299L35.4265 50.9708C35.9936 51.531 36.7374 51.8112 37.4807 51.8112C38.2241 51.8112 38.9678 51.531 39.5349 50.9708L55.6108 35.0889C56.7458 33.968 56.7458 32.1506 55.6112 31.0301C54.477 29.9092 52.6374 29.9088 51.5028 31.0297Z" fill="#45CD47"/>
</g>
<defs>
<clipPath id="clip0_383_528">
<rect width="83" height="82" fill="white"/>
</clipPath>
</defs>
</svg>
