<svg width="65" height="82" viewBox="0 0 65 82" fill="none" xmlns="http://www.w3.org/2000/svg">
<path d="M32.5 2.41187C20.2941 2.41187 10.5294 12.0589 10.5294 24.1177V33.7648C6.37943 33.7648 3.2059 36.9001 3.2059 41.0001V72.353C3.2059 76.453 6.37943 79.5883 10.5294 79.5883H54.4706C58.6206 79.5883 61.7941 76.453 61.7941 72.353V41.0001C61.7941 36.9001 58.6206 33.7648 54.4706 33.7648V24.1177C54.4706 12.0589 44.7059 2.41187 32.5 2.41187ZM56.9118 41.0001V72.353C56.9118 73.8001 55.9353 74.7648 54.4706 74.7648H10.5294C9.06473 74.7648 8.08826 73.8001 8.08826 72.353V41.0001C8.08826 39.553 9.06473 38.5883 10.5294 38.5883H12.9706H52.0294H54.4706C55.9353 38.5883 56.9118 39.553 56.9118 41.0001ZM15.4118 33.7648V24.1177C15.4118 14.7119 22.9794 7.23539 32.5 7.23539C42.0206 7.23539 49.5883 14.7119 49.5883 24.1177V33.7648H15.4118Z" fill="#45CD47"/>
<path d="M32.5 45.8237C28.35 45.8237 25.1765 48.959 25.1765 53.059C25.1765 56.1943 27.1295 58.8473 30.0589 59.812V65.1178C30.0589 66.5649 31.0353 67.5296 32.5 67.5296C33.9647 67.5296 34.9412 66.5649 34.9412 65.1178V59.812C37.8706 58.8473 39.8236 56.1943 39.8236 53.059C39.8236 48.959 36.65 45.8237 32.5 45.8237ZM32.5 55.4708C31.0353 55.4708 30.0589 54.5061 30.0589 53.059C30.0589 51.612 31.0353 50.6473 32.5 50.6473C33.9647 50.6473 34.9412 51.612 34.9412 53.059C34.9412 54.5061 33.9647 55.4708 32.5 55.4708Z" fill="#45CD47"/>
</svg>
