<svg xmlns="http://www.w3.org/2000/svg" width="23.139" height="26.735" viewBox="0 0 23.139 26.735">
    <g id="prefix__Group_6604" data-name="Group 6604" transform="translate(-689 -777.633)">
        <path id="prefix__shopping-bag" d="M23.134 25.856L21.1 6.506a.8.8 0 0 0-.791-.713h-3.818v-.87a4.923 4.923 0 0 0-9.845 0v.871H2.827a.8.8 0 0 0-.791.713L0 25.856a.8.8 0 0 0 .791.879h21.551a.8.8 0 0 0 .792-.879zM8.237 4.923a3.331 3.331 0 0 1 6.663 0v.871H8.237zm-6.558 20.22L3.543 7.385h3.1v1.753a.8.8 0 1 0 1.591 0V7.385H14.9v1.753a.8.8 0 1 0 1.591 0V7.385h3.1l1.865 17.759zm0 0" transform="translate(689.001 777.633)"/>
        <path id="prefix__Path_3968" d="M2331.1 1089.235l1.437 1.307-6.223 6.839-4.11-3.976 1.351-1.4 2.671 2.583z" data-name="Path 3968" transform="translate(-1627.2 -298.235)" style="fill:#fd6060"/>
    </g>
</svg>
