<svg width="91" height="91" viewBox="0 0 91 91" fill="none" xmlns="http://www.w3.org/2000/svg">
<path d="M90.1909 19.3009C89.6855 18.9454 89.0374 18.8583 88.4563 19.0732L73.0008 24.694C71.0847 25.3902 69.559 26.7936 68.7055 28.6449C68.5456 28.992 68.4405 29.3526 68.3353 29.7127C65.6814 28.9582 60.7492 27.3824 55.8477 24.857C48.441 21.0405 42.7824 22.9256 37.9292 26.6274C35.4701 26.6758 32.0807 26.9665 28.7489 27.2602C26.6235 27.4477 24.615 27.6202 22.9862 27.7196C22.9462 26.7413 22.7173 25.7706 22.295 24.8535C21.4415 23.002 19.916 21.5986 17.9997 20.9026L2.54391 15.2814C1.9645 15.0685 1.31275 15.1556 0.809225 15.5091C0.301793 15.8647 0 16.4441 0 17.0625V54.9791C0 56.027 0.847971 56.875 1.89589 56.875H7.43338C9.78854 56.875 11.9797 55.7641 13.396 53.9704C14.1505 54.5442 15.0441 55.216 15.9813 55.9196C18.1938 57.5841 20.6154 59.4002 21.6781 60.2908C28.7375 66.2005 37.2243 72.5822 38.9146 73.6931C40.4938 74.7298 43.3375 75.8334 45.5 75.8334C46.346 75.8334 48.477 75.8334 49.973 74.5688C51.5152 75.1741 53.1778 75.1446 54.7237 74.4632C56.2659 73.7837 57.5138 72.5026 58.2395 70.9455C59.7205 71.2491 61.422 71.0269 62.9642 70.253C64.41 69.5291 65.4747 68.433 66.0448 67.1519C67.4148 67.2778 68.8776 66.8316 70.1864 65.8299C72.0565 64.4004 72.9129 62.2893 72.6706 60.2066L77.4796 57.5461C78.8879 59.4551 81.1263 60.6664 83.5664 60.6664H89.1039C90.1518 60.6664 90.9998 59.8184 90.9998 58.7705V20.8543C91 20.2357 90.6982 19.6563 90.1909 19.3009ZM10.9843 50.6228C10.4327 52.0946 9.00527 53.0834 7.43338 53.0834H3.79161V19.7692L16.7033 24.4644C17.6624 24.8144 18.4252 25.516 18.8509 26.4417C19.2785 27.3673 19.3156 28.4042 18.9582 29.3576L10.9843 50.6228ZM67.8853 62.818C67.2428 63.3105 66.3431 63.5846 65.9432 63.1847C65.9227 63.1643 65.8911 63.1662 65.8701 63.1467C65.8339 63.1131 65.8159 63.0678 65.7766 63.0365C64.4214 61.9663 58.3488 55.7531 54.5961 51.8392C53.8722 51.0821 52.6707 51.0542 51.9171 51.7818C51.16 52.5057 51.134 53.7054 51.8597 54.4608C52.7405 55.3802 59.8115 62.7446 62.6416 65.3202C62.4303 66.1527 61.6585 66.6667 61.2666 66.8633C60.0522 67.4724 58.7858 67.3705 58.3118 66.9299C58.2978 66.9168 58.2768 66.9175 58.2622 66.9047C58.2391 66.8841 58.2288 66.8551 58.2043 66.8356C55.9307 65.0193 50.2267 58.9578 48.9361 57.5544C48.227 56.7824 47.0292 56.7342 46.2571 57.4416C45.487 58.1507 45.4351 59.3504 46.1443 60.1206C46.2065 60.1879 51.7966 66.2179 54.9363 69.0188C54.6277 69.9054 53.9991 70.6396 53.1925 70.9956C52.5973 71.2601 51.6663 71.3957 50.6026 70.6096C47.88 68.3012 42.4163 62.4851 41.3417 61.335C40.629 60.5685 39.4256 60.5297 38.6627 61.2444C37.8981 61.9591 37.8574 63.1588 38.5721 63.9234C39.8461 65.287 43.6117 69.2782 46.4743 71.9806C46.1546 72.0195 45.8189 72.0418 45.5 72.0418C44.2447 72.0418 42.0879 71.2402 40.9975 70.5235C39.6682 69.6496 31.3219 63.4216 24.1145 57.386C23.0241 56.4713 20.5358 54.5996 18.2585 52.8889C17.038 51.9727 15.9134 51.1279 15.0847 50.4904L22.183 31.5588C24.0256 31.4783 26.4821 31.2659 29.0818 31.0367C30.5522 30.9071 32.0242 30.7807 33.4308 30.6712C31.2688 32.8906 28.0545 36.8656 28.4782 40.5917C28.6726 42.2876 29.6002 43.7002 31.1647 44.6778C34.262 46.6161 39.9959 44.9906 42.7581 41.5934C44.5409 41.336 45.7463 40.8806 47.0607 40.2289C49.2824 42.3173 52.2612 44.7723 55.3902 47.3512C60.837 51.839 67.0114 56.9267 68.6444 59.7797C69.5533 61.3665 68.2926 62.507 67.8853 62.818ZM71.1376 56.721C68.6117 53.342 63.136 48.8209 57.8006 44.4243C54.2442 41.4935 50.8857 38.7256 48.7362 36.5763C48.1438 35.9874 47.2347 35.8541 46.5015 36.2448C44.5704 37.2798 43.7004 37.7074 41.5195 37.9258C40.9381 37.985 40.4161 38.3072 40.105 38.8015C38.6183 41.1602 34.486 42.2821 33.1752 41.4638C32.4308 40.9972 32.2865 40.5232 32.2458 40.1622C32.0626 38.5497 33.6954 35.7578 36.4041 33.0474C43.1118 26.3397 47.9069 25.0271 54.1109 28.2263C60.0053 31.2654 65.8227 32.9837 68.2647 33.6328C68.3353 33.9168 68.3865 34.2037 68.4906 34.4822L75.8519 54.1132L71.1376 56.721ZM87.2084 56.875H83.5666C81.9947 56.875 80.5673 55.8862 80.0157 54.4144L72.0416 33.1512C71.6844 32.1958 71.7213 31.1591 72.149 30.2333C72.5748 29.3077 73.3376 28.606 74.2965 28.256L87.2082 23.5608V56.875H87.2084Z" fill="#45CD47"/>
</svg>
