<svg width="207" height="39" viewBox="0 0 207 39" fill="none" xmlns="http://www.w3.org/2000/svg">
<path d="M11.1478 10.3572H21.7809H32.414L37.7306 1.18799H27.0975H16.4644H5.82901L0.512451 10.3572L5.82901 19.5287L11.1478 10.3572Z" fill="#FAFAFA"/>
<path d="M35.0243 14.9429L29.7077 24.1121H19.0746L13.7892 33.2282L13.7558 33.2835L11.132 37.8117L5.81323 28.6425L8.43927 24.1121L8.47263 24.0567L13.7558 14.9429H35.0243Z" fill="#44A647"/>
<path d="M63.742 21.5681H54.3563L53.0111 30.992H47.4321L50.6652 8.00806H67.5888L66.9351 12.7975H55.5949L54.9789 17.2393H64.3646L63.742 21.5681Z" fill="#FAFAFA"/>
<path d="M75.5892 30.992H70.0125L73.2433 8.00806H78.82L75.5892 30.992Z" fill="#FAFAFA"/>
<path d="M103.208 30.992H98.8986L89.7064 17.5847L87.8208 30.992H82.2908L85.5127 8.00806H89.822L99.0543 21.1851L100.9 8.00806H106.439L103.208 30.992Z" fill="#FAFAFA"/>
<path d="M109.901 30.992L113.132 8.00806H118.711L116.172 26.2026H126.48L125.789 30.992H109.901Z" fill="#FAFAFA"/>
<path d="M147.441 21.5305H138.058L137.404 26.2026H148.598L147.906 30.992H131.134L134.365 8.00806H151.137L150.483 12.7975H139.29L138.674 17.2016H148.06L147.441 21.5305Z" fill="#FAFAFA"/>
<path d="M155.328 8.00806H173.902L173.208 12.7975H166.715L164.138 30.992H158.559L161.136 12.7975H154.637L155.328 8.00806Z" fill="#FAFAFA"/>
<path d="M192.135 21.5305H182.754L182.1 26.2026H193.294L192.602 30.992H175.832L179.063 8.00806H195.833L195.179 12.7975H183.986L183.37 17.2016H192.756L192.135 21.5305Z" fill="#FAFAFA"/>
</svg>
