<svg width="32" height="25" viewBox="0 0 32 25" fill="none" xmlns="http://www.w3.org/2000/svg">
<path d="M0.0670076 23.8846L0.110258 19.419C1.4501 19.2266 2.58884 18.7756 3.52648 18.0661C4.46462 17.3051 5.17207 16.3366 5.64885 15.1606C6.18428 13.9337 6.45921 12.5761 6.47363 11.0875L0.88955 11.0334L0.991711 0.485276L13.1196 0.602738L13.0279 10.073C12.9971 13.2554 12.3321 15.8413 11.0331 17.8307C9.79266 19.7694 8.17889 21.2168 6.19175 22.1729C4.26327 23.0783 2.22169 23.6488 0.0670076 23.8846ZM18.3025 24.0612L18.3458 19.5956C19.6274 19.4027 20.7371 18.9514 21.6747 18.2418C22.671 17.4815 23.4076 16.5132 23.8844 15.3372C24.4198 14.1104 24.6947 12.7527 24.7091 11.2641L19.1251 11.21L19.2272 0.661891L31.2679 0.778508L31.1762 10.2487C31.1453 13.4311 30.4804 16.0171 29.1813 18.0065C27.9409 19.9452 26.3271 21.3926 24.34 22.3487C22.4115 23.254 20.399 23.8249 18.3025 24.0612Z" fill="black"/>
</svg>
