<svg width="45" height="45" viewBox="0 0 45 45" fill="none" xmlns="http://www.w3.org/2000/svg">
<circle cx="22.0466" cy="22.0466" r="22.0466" fill="#45CD47"/>
<g clip-path="url(#clip0_398_311)">
<path d="M26.4805 12H17.5191C14.4759 12 12 14.476 12 17.5192V26.4806C12 29.524 14.4759 31.9999 17.5191 31.9999H26.4805C29.524 31.9999 31.9999 29.5239 31.9999 26.4806V17.5192C32 14.476 29.524 12 26.4805 12ZM30.2255 26.4806C30.2255 28.5455 28.5455 30.2254 26.4806 30.2254H17.5191C15.4543 30.2255 13.7745 28.5455 13.7745 26.4806V17.5192C13.7745 15.4545 15.4543 13.7745 17.5191 13.7745H26.4805C28.5454 13.7745 30.2254 15.4545 30.2254 17.5192V26.4806H30.2255Z" fill="black"/>
<path d="M21.9999 16.8467C19.1582 16.8467 16.8464 19.1585 16.8464 22.0001C16.8464 24.8417 19.1582 27.1534 21.9999 27.1534C24.8416 27.1534 27.1534 24.8417 27.1534 22.0001C27.1534 19.1585 24.8416 16.8467 21.9999 16.8467ZM21.9999 25.3788C20.1368 25.3788 18.6209 23.8631 18.6209 22C18.6209 20.1368 20.1367 18.621 21.9999 18.621C23.8631 18.621 25.3789 20.1368 25.3789 22C25.3789 23.8631 23.863 25.3788 21.9999 25.3788Z" fill="black"/>
<path d="M27.3697 15.342C27.0278 15.342 26.6919 15.4805 26.4505 15.723C26.2078 15.9643 26.0684 16.3003 26.0684 16.6433C26.0684 16.9853 26.208 17.3212 26.4505 17.5637C26.6918 17.805 27.0278 17.9446 27.3697 17.9446C27.7127 17.9446 28.0475 17.805 28.29 17.5637C28.5325 17.3212 28.6709 16.9852 28.6709 16.6433C28.6709 16.3003 28.5325 15.9643 28.29 15.723C28.0487 15.4805 27.7127 15.342 27.3697 15.342Z" fill="black"/>
</g>
<defs>
<clipPath id="clip0_398_311">
<rect width="20" height="20" fill="white" transform="translate(12 12)"/>
</clipPath>
</defs>
</svg>
