<svg xmlns="http://www.w3.org/2000/svg" width="261.834" height="203.956" viewBox="0 0 261.834 203.956">
    <defs>
        <style>
            .prefix__cls-1{fill:rgba(255,255,255,.23)}
        </style>
    </defs>
    <g id="prefix__Group_6344" data-name="Group 6344" transform="rotate(90 -82.006 557.409)">
        <path id="prefix__Rectangle_2696" d="M0 0H9.463V9.463H0z" class="prefix__cls-1" data-name="Rectangle 2696" transform="translate(-639.414 213.569)"/>
        <path id="prefix__Rectangle_2697" d="M0 0H9.463V9.463H0z" class="prefix__cls-1" data-name="Rectangle 2697" transform="translate(-611.629 213.569)"/>
        <path id="prefix__Rectangle_2700" d="M0 0H9.463V9.463H0z" class="prefix__cls-1" data-name="Rectangle 2700" transform="translate(-583.844 213.569)"/>
        <path id="prefix__Rectangle_2701" d="M0 0H9.463V9.463H0z" class="prefix__cls-1" data-name="Rectangle 2701" transform="translate(-556.06 213.569)"/>
        <path id="prefix__Rectangle_2702" d="M0 0H9.463V9.463H0z" class="prefix__cls-1" data-name="Rectangle 2702" transform="translate(-528.275 213.569)"/>
        <path id="prefix__Rectangle_2703" d="M0 0H9.463V9.463H0z" class="prefix__cls-1" data-name="Rectangle 2703" transform="translate(-500.491 213.569)"/>
        <path id="prefix__Rectangle_2704" d="M0 0H9.463V9.463H0z" class="prefix__cls-1" data-name="Rectangle 2704" transform="translate(-472.706 213.569)"/>
        <path id="prefix__Rectangle_2705" d="M0 0H9.463V9.463H0z" class="prefix__cls-1" data-name="Rectangle 2705" transform="translate(-444.921 213.569)"/>
        <path id="prefix__Rectangle_2706" d="M0 0H9.463V9.463H0z" class="prefix__cls-1" data-name="Rectangle 2706" transform="translate(-639.414 241.61)"/>
        <path id="prefix__Rectangle_2707" d="M0 0H9.463V9.463H0z" class="prefix__cls-1" data-name="Rectangle 2707" transform="translate(-611.629 241.61)"/>
        <path id="prefix__Rectangle_2707-2" d="M0 0H9.463V9.463H0z" class="prefix__cls-1" data-name="Rectangle 2707" transform="translate(-611.629 325.61)"/>
        <path id="prefix__Rectangle_2710" d="M0 0H9.463V9.463H0z" class="prefix__cls-1" data-name="Rectangle 2710" transform="translate(-583.844 241.61)"/>
        <path id="prefix__Rectangle_2710-2" d="M0 0H9.463V9.463H0z" class="prefix__cls-1" data-name="Rectangle 2710" transform="translate(-583.844 325.61)"/>
        <path id="prefix__Rectangle_2711" d="M0 0H9.463V9.463H0z" class="prefix__cls-1" data-name="Rectangle 2711" transform="translate(-556.06 241.61)"/>
        <path id="prefix__Rectangle_2711-2" d="M0 0H9.463V9.463H0z" class="prefix__cls-1" data-name="Rectangle 2711" transform="translate(-556.06 325.61)"/>
        <path id="prefix__Rectangle_2712" d="M0 0H9.463V9.463H0z" class="prefix__cls-1" data-name="Rectangle 2712" transform="translate(-528.275 241.61)"/>
        <path id="prefix__Rectangle_2713" d="M0 0H9.463V9.463H0z" class="prefix__cls-1" data-name="Rectangle 2713" transform="translate(-500.491 241.61)"/>
        <path id="prefix__Rectangle_2714" d="M0 0H9.463V9.463H0z" class="prefix__cls-1" data-name="Rectangle 2714" transform="translate(-472.706 241.61)"/>
        <path id="prefix__Rectangle_2715" d="M0 0H9.463V9.463H0z" class="prefix__cls-1" data-name="Rectangle 2715" transform="translate(-444.921 241.61)"/>
        <path id="prefix__Rectangle_2716" d="M0 0H9.463V9.463H0z" class="prefix__cls-1" data-name="Rectangle 2716" transform="translate(-639.414 269.651)"/>
        <path id="prefix__Rectangle_2717" d="M0 0H9.463V9.463H0z" class="prefix__cls-1" data-name="Rectangle 2717" transform="translate(-611.629 269.651)"/>
        <path id="prefix__Rectangle_2717-2" d="M0 0H9.463V9.463H0z" class="prefix__cls-1" data-name="Rectangle 2717" transform="translate(-611.629 353.651)"/>
        <path id="prefix__Rectangle_2720" d="M0 0H9.463V9.463H0z" class="prefix__cls-1" data-name="Rectangle 2720" transform="translate(-583.844 269.651)"/>
        <path id="prefix__Rectangle_2720-2" d="M0 0H9.463V9.463H0z" class="prefix__cls-1" data-name="Rectangle 2720" transform="translate(-583.844 353.651)"/>
        <path id="prefix__Rectangle_2721" d="M0 0H9.463V9.463H0z" class="prefix__cls-1" data-name="Rectangle 2721" transform="translate(-556.06 269.651)"/>
        <path id="prefix__Rectangle_2721-2" d="M0 0H9.463V9.463H0z" class="prefix__cls-1" data-name="Rectangle 2721" transform="translate(-556.06 353.651)"/>
        <path id="prefix__Rectangle_2722" d="M0 0H9.463V9.463H0z" class="prefix__cls-1" data-name="Rectangle 2722" transform="translate(-528.275 269.651)"/>
        <path id="prefix__Rectangle_2723" d="M0 0H9.463V9.463H0z" class="prefix__cls-1" data-name="Rectangle 2723" transform="translate(-500.491 269.651)"/>
        <path id="prefix__Rectangle_2724" d="M0 0H9.463V9.463H0z" class="prefix__cls-1" data-name="Rectangle 2724" transform="translate(-472.706 269.651)"/>
        <path id="prefix__Rectangle_2725" d="M0 0H9.463V9.463H0z" class="prefix__cls-1" data-name="Rectangle 2725" transform="translate(-444.921 269.651)"/>
        <path id="prefix__Rectangle_2726" d="M0 0H9.463V9.463H0z" class="prefix__cls-1" data-name="Rectangle 2726" transform="translate(-639.414 297.693)"/>
        <path id="prefix__Rectangle_2727" d="M0 0H9.463V9.463H0z" class="prefix__cls-1" data-name="Rectangle 2727" transform="translate(-611.629 297.693)"/>
        <path id="prefix__Rectangle_2727-2" d="M0 0H9.463V9.463H0z" class="prefix__cls-1" data-name="Rectangle 2727" transform="translate(-611.629 381.693)"/>
        <path id="prefix__Rectangle_2730" d="M0 0H9.463V9.463H0z" class="prefix__cls-1" data-name="Rectangle 2730" transform="translate(-583.844 297.693)"/>
        <path id="prefix__Rectangle_2730-2" d="M0 0H9.463V9.463H0z" class="prefix__cls-1" data-name="Rectangle 2730" transform="translate(-583.844 381.693)"/>
        <path id="prefix__Rectangle_2731" d="M0 0H9.463V9.463H0z" class="prefix__cls-1" data-name="Rectangle 2731" transform="translate(-556.06 297.693)"/>
        <path id="prefix__Rectangle_2731-2" d="M0 0H9.463V9.463H0z" class="prefix__cls-1" data-name="Rectangle 2731" transform="translate(-556.06 381.693)"/>
        <path id="prefix__Rectangle_2732" d="M0 0H9.463V9.463H0z" class="prefix__cls-1" data-name="Rectangle 2732" transform="translate(-528.275 297.693)"/>
        <path id="prefix__Rectangle_2733" d="M0 0H9.463V9.463H0z" class="prefix__cls-1" data-name="Rectangle 2733" transform="translate(-500.491 297.693)"/>
        <path id="prefix__Rectangle_2734" d="M0 0H9.463V9.463H0z" class="prefix__cls-1" data-name="Rectangle 2734" transform="translate(-472.706 297.693)"/>
        <path id="prefix__Rectangle_2735" d="M0 0H9.463V9.463H0z" class="prefix__cls-1" data-name="Rectangle 2735" transform="translate(-444.921 297.693)"/>
        <path id="prefix__Rectangle_2736" d="M0 0H9.463V9.463H0z" class="prefix__cls-1" data-name="Rectangle 2736" transform="translate(-639.414 325.734)"/>
        <path id="prefix__Rectangle_2742" d="M0 0H9.463V9.463H0z" class="prefix__cls-1" data-name="Rectangle 2742" transform="translate(-528.275 325.734)"/>
        <path id="prefix__Rectangle_2743" d="M0 0H9.463V9.463H0z" class="prefix__cls-1" data-name="Rectangle 2743" transform="translate(-500.491 325.734)"/>
        <path id="prefix__Rectangle_2744" d="M0 0H9.463V9.463H0z" class="prefix__cls-1" data-name="Rectangle 2744" transform="translate(-472.706 325.734)"/>
        <path id="prefix__Rectangle_2745" d="M0 0H9.463V9.463H0z" class="prefix__cls-1" data-name="Rectangle 2745" transform="translate(-444.921 325.734)"/>
        <path id="prefix__Rectangle_2746" d="M0 0H9.463V9.463H0z" class="prefix__cls-1" data-name="Rectangle 2746" transform="translate(-639.414 353.775)"/>
        <path id="prefix__Rectangle_2752" d="M0 0H9.463V9.463H0z" class="prefix__cls-1" data-name="Rectangle 2752" transform="translate(-528.275 353.775)"/>
        <path id="prefix__Rectangle_2753" d="M0 0H9.463V9.463H0z" class="prefix__cls-1" data-name="Rectangle 2753" transform="translate(-500.491 353.775)"/>
        <path id="prefix__Rectangle_2754" d="M0 0H9.463V9.463H0z" class="prefix__cls-1" data-name="Rectangle 2754" transform="translate(-472.706 353.775)"/>
        <path id="prefix__Rectangle_2755" d="M0 0H9.463V9.463H0z" class="prefix__cls-1" data-name="Rectangle 2755" transform="translate(-444.921 353.775)"/>
        <path id="prefix__Rectangle_2756" d="M0 0H9.463V9.463H0z" class="prefix__cls-1" data-name="Rectangle 2756" transform="translate(-639.414 381.816)"/>
        <path id="prefix__Rectangle_2762" d="M0 0H9.463V9.463H0z" class="prefix__cls-1" data-name="Rectangle 2762" transform="translate(-528.275 381.816)"/>
        <path id="prefix__Rectangle_2763" d="M0 0H9.463V9.463H0z" class="prefix__cls-1" data-name="Rectangle 2763" transform="translate(-500.491 381.816)"/>
        <path id="prefix__Rectangle_2764" d="M0 0H9.463V9.463H0z" class="prefix__cls-1" data-name="Rectangle 2764" transform="translate(-472.706 381.816)"/>
        <path id="prefix__Rectangle_2765" d="M0 0H9.463V9.463H0z" class="prefix__cls-1" data-name="Rectangle 2765" transform="translate(-444.921 381.816)"/>
        <path id="prefix__Rectangle_2766" d="M0 0H9.463V9.463H0z" class="prefix__cls-1" data-name="Rectangle 2766" transform="translate(-639.414 409.858)"/>
        <path id="prefix__Rectangle_2767" d="M0 0H9.463V9.463H0z" class="prefix__cls-1" data-name="Rectangle 2767" transform="translate(-611.629 409.858)"/>
        <path id="prefix__Rectangle_2770" d="M0 0H9.463V9.463H0z" class="prefix__cls-1" data-name="Rectangle 2770" transform="translate(-583.844 409.858)"/>
        <path id="prefix__Rectangle_2771" d="M0 0H9.463V9.463H0z" class="prefix__cls-1" data-name="Rectangle 2771" transform="translate(-556.06 409.858)"/>
        <path id="prefix__Rectangle_2772" d="M0 0H9.463V9.463H0z" class="prefix__cls-1" data-name="Rectangle 2772" transform="translate(-528.275 409.858)"/>
        <path id="prefix__Rectangle_2773" d="M0 0H9.463V9.463H0z" class="prefix__cls-1" data-name="Rectangle 2773" transform="translate(-500.491 409.858)"/>
        <path id="prefix__Rectangle_2774" d="M0 0H9.463V9.463H0z" class="prefix__cls-1" data-name="Rectangle 2774" transform="translate(-472.706 409.858)"/>
        <path id="prefix__Rectangle_2775" d="M0 0H9.463V9.463H0z" class="prefix__cls-1" data-name="Rectangle 2775" transform="translate(-444.921 409.858)"/>
        <path id="prefix__Rectangle_2776" d="M0 0H9.463V9.463H0z" class="prefix__cls-1" data-name="Rectangle 2776" transform="translate(-639.414 437.899)"/>
        <path id="prefix__Rectangle_2777" d="M0 0H9.463V9.463H0z" class="prefix__cls-1" data-name="Rectangle 2777" transform="translate(-611.629 437.899)"/>
        <path id="prefix__Rectangle_2780" d="M0 0H9.463V9.463H0z" class="prefix__cls-1" data-name="Rectangle 2780" transform="translate(-583.844 437.899)"/>
        <path id="prefix__Rectangle_2781" d="M0 0H9.463V9.463H0z" class="prefix__cls-1" data-name="Rectangle 2781" transform="translate(-556.06 437.899)"/>
        <path id="prefix__Rectangle_2782" d="M0 0H9.463V9.463H0z" class="prefix__cls-1" data-name="Rectangle 2782" transform="translate(-528.275 437.899)"/>
        <path id="prefix__Rectangle_2783" d="M0 0H9.463V9.463H0z" class="prefix__cls-1" data-name="Rectangle 2783" transform="translate(-500.491 437.899)"/>
        <path id="prefix__Rectangle_2784" d="M0 0H9.463V9.463H0z" class="prefix__cls-1" data-name="Rectangle 2784" transform="translate(-472.706 437.899)"/>
        <path id="prefix__Rectangle_2785" d="M0 0H9.463V9.463H0z" class="prefix__cls-1" data-name="Rectangle 2785" transform="translate(-444.921 437.899)"/>
        <path id="prefix__Rectangle_2786" d="M0 0H9.463V9.463H0z" class="prefix__cls-1" data-name="Rectangle 2786" transform="translate(-639.414 465.94)"/>
        <path id="prefix__Rectangle_2787" d="M0 0H9.463V9.463H0z" class="prefix__cls-1" data-name="Rectangle 2787" transform="translate(-611.629 465.94)"/>
        <path id="prefix__Rectangle_2790" d="M0 0H9.463V9.463H0z" class="prefix__cls-1" data-name="Rectangle 2790" transform="translate(-583.844 465.94)"/>
        <path id="prefix__Rectangle_2791" d="M0 0H9.463V9.463H0z" class="prefix__cls-1" data-name="Rectangle 2791" transform="translate(-556.06 465.94)"/>
        <path id="prefix__Rectangle_2792" d="M0 0H9.463V9.463H0z" class="prefix__cls-1" data-name="Rectangle 2792" transform="translate(-528.275 465.94)"/>
        <path id="prefix__Rectangle_2793" d="M0 0H9.463V9.463H0z" class="prefix__cls-1" data-name="Rectangle 2793" transform="translate(-500.491 465.94)"/>
        <path id="prefix__Rectangle_2794" d="M0 0H9.463V9.463H0z" class="prefix__cls-1" data-name="Rectangle 2794" transform="translate(-472.706 465.94)"/>
        <path id="prefix__Rectangle_2795" d="M0 0H9.463V9.463H0z" class="prefix__cls-1" data-name="Rectangle 2795" transform="translate(-444.921 465.94)"/>
    </g>
</svg>
