<svg width="16" height="16" viewBox="0 0 16 16" fill="none" xmlns="http://www.w3.org/2000/svg">
<g clip-path="url(#clip0_353_6659)">
<path d="M11.3208 5.72029C11.5475 5.93675 11.5475 6.28764 11.3208 6.50399L7.42811 10.2216C7.20145 10.438 6.83414 10.438 6.60748 10.2216L4.75441 8.45182C4.52775 8.23547 4.52775 7.88458 4.75441 7.66823C4.98096 7.45177 5.34837 7.45177 5.57492 7.66823L7.01774 9.04612L10.5002 5.72029C10.7268 5.50394 11.0942 5.50394 11.3208 5.72029ZM15.4649 7.97095C15.4649 11.8916 12.1424 15.064 8.0376 15.064C3.93219 15.064 0.610352 11.8911 0.610352 7.97095C0.610352 4.05029 3.93276 0.87793 8.0376 0.87793C12.143 0.87793 15.4649 4.05083 15.4649 7.97095ZM14.3043 7.97095C14.3043 4.66287 11.5011 1.98621 8.0376 1.98621C4.57364 1.98621 1.77086 4.66331 1.77086 7.97095C1.77086 11.279 4.5741 13.9557 8.0376 13.9557C11.5016 13.9557 14.3043 11.2786 14.3043 7.97095Z" fill="#45CD47"/>
</g>
<defs>
<clipPath id="clip0_353_6659">
<rect width="14.8545" height="14.186" fill="white" transform="translate(0.610352 0.87793)"/>
</clipPath>
</defs>
</svg>
